<svg width="50" height="50" viewBox="0 0 50 50" fill="none" xmlns="http://www.w3.org/2000/svg">
<path d="M12.1876 35.625C13.9584 34.2708 15.9376 33.2031 18.1251 32.4218C20.3126 31.6406 22.6042 31.25 25.0001 31.25C27.3959 31.25 29.6876 31.6406 31.8751 32.4218C34.0626 33.2031 36.0417 34.2708 37.8126 35.625C39.0279 34.2013 39.974 32.5868 40.6511 30.7812C41.3282 28.9757 41.6667 27.0486 41.6667 25C41.6667 20.3819 40.0435 16.4496 36.797 13.2031C33.5504 9.95656 29.6181 8.33329 25.0001 8.33329C20.382 8.33329 16.4497 9.95656 13.2032 13.2031C9.95668 16.4496 8.33341 20.3819 8.33341 25C8.33341 27.0486 8.67196 28.9757 9.34904 30.7812C10.0261 32.5868 10.9723 34.2013 12.1876 35.625ZM25.0001 27.0833C22.9515 27.0833 21.224 26.3802 19.8178 24.9739C18.4115 23.5677 17.7084 21.8402 17.7084 19.7916C17.7084 17.743 18.4115 16.0156 19.8178 14.6093C21.224 13.2031 22.9515 12.5 25.0001 12.5C27.0487 12.5 28.7761 13.2031 30.1824 14.6093C31.5886 16.0156 32.2917 17.743 32.2917 19.7916C32.2917 21.8402 31.5886 23.5677 30.1824 24.9739C28.7761 26.3802 27.0487 27.0833 25.0001 27.0833ZM25.0001 45.8333C22.1181 45.8333 19.4098 45.2864 16.8751 44.1927C14.3404 43.0989 12.1355 41.6145 10.2605 39.7395C8.3855 37.8645 6.90112 35.6597 5.80737 33.125C4.71362 30.5902 4.16675 27.8819 4.16675 25C4.16675 22.118 4.71362 19.4097 5.80737 16.875C6.90112 14.3402 8.3855 12.1354 10.2605 10.2604C12.1355 8.38538 14.3404 6.901 16.8751 5.80725C19.4098 4.7135 22.1181 4.16663 25.0001 4.16663C27.882 4.16663 30.5904 4.7135 33.1251 5.80725C35.6598 6.901 37.8647 8.38538 39.7397 10.2604C41.6147 12.1354 43.099 14.3402 44.1928 16.875C45.2865 19.4097 45.8334 22.118 45.8334 25C45.8334 27.8819 45.2865 30.5902 44.1928 33.125C43.099 35.6597 41.6147 37.8645 39.7397 39.7395C37.8647 41.6145 35.6598 43.0989 33.1251 44.1927C30.5904 45.2864 27.882 45.8333 25.0001 45.8333Z" fill="#5E7897"/>
</svg>
